<?xml version="1.0" encoding="UTF-8" standalone="no"?>
<svg
   xmlns:dc="http://purl.org/dc/elements/1.1/"
   xmlns:cc="http://creativecommons.org/ns#"
   xmlns:rdf="http://www.w3.org/1999/02/22-rdf-syntax-ns#"
   xmlns:svg="http://www.w3.org/2000/svg"
   xmlns="http://www.w3.org/2000/svg"
   viewBox="0 0 794.66669 794.66669"
   height="794.66669"
   width="794.66669"
   xml:space="preserve"
   id="svg2"
   version="1.1"><metadata
     id="metadata8"><rdf:RDF><cc:Work
         rdf:about=""><dc:format>image/svg+xml</dc:format><dc:type
           rdf:resource="http://purl.org/dc/dcmitype/StillImage" /></cc:Work></rdf:RDF></metadata><defs
     id="defs6" /><g
     transform="matrix(1.3333333,0,0,-1.3333333,0,794.66667)"
     id="g10"><g
       transform="scale(0.1)"
       id="g12"><path
         id="path14"
         style="fill:#6254ff;fill-opacity:1;fill-rule:evenodd;stroke:none"
         d="M 0,5952.76 H 5952.76 V 0 H 0 v 5952.76" /><path
         id="path16"
         style="fill:#ffffff;fill-opacity:1;fill-rule:evenodd;stroke:none"
         d="m 1651.32,3119.7 -19.03,-32.97 38.07,-65.94 51.28,-88.82 2.91,-5.05 54.2,-93.87 54.19,-93.86 219.69,380.51 h -5.83 -69.19 -1.13 l -165.49,-286.65 h -32.24 l 165.5,286.65 h -76.15 l -111.31,-192.78 h -32.24 l 111.31,192.78 h -76.15 l -57.11,-98.91 h -32.24 l 73.23,126.84 h 234.02 53.07 38.07 l 38.08,65.94 h -547.78 l 38.08,-65.94 h 38.07 16.12 16.12 l -16.12,-27.93" /><path
         id="path18"
         style="fill:#ffffff;fill-opacity:1;fill-rule:evenodd;stroke:none"
         d="m 2382.87,3088.02 h 105.02 v 53.93 h -268.7 v -53.93 h 105.02 v -277.2 h 58.66 z m 456.16,-277.2 -89.41,125.36 c 11.67,3.14 22.31,7.64 31.93,13.48 9.62,5.83 17.9,12.93 24.84,21.28 6.94,8.36 12.38,17.97 16.32,28.85 3.94,10.89 5.92,23.26 5.92,37.14 0,16.09 -2.84,30.67 -8.52,43.76 -5.68,13.08 -13.8,24.13 -24.37,33.11 -10.56,8.99 -23.49,15.93 -38.78,20.82 -15.3,4.88 -32.41,7.33 -51.33,7.33 h -147.59 v -331.13 h 57.71 v 115.42 h 73.08 l 81.61,-115.42 z m -69.54,223.03 c 0,-17.1 -6.15,-30.74 -18.53,-40.83 -12.3,-10.17 -28.94,-15.22 -49.83,-15.22 h -85.38 v 111.64 h 84.91 c 21.84,0 38.79,-4.65 50.78,-14.04 12.06,-9.3 18.05,-23.18 18.05,-41.55 z m 310.46,110.46 h -53.93 l -145.7,-333.49 h 59.61 l 34.05,79.94 h 156.59 l 33.58,-79.94 h 61.5 z m 29.33,-201.99 h -114.01 l 56.77,132.45 z m 449.54,-78.52 -37.37,37.84 c -14.19,-13.25 -28.54,-23.73 -43.05,-31.46 -14.51,-7.72 -31.85,-11.59 -52.04,-11.59 -15.77,0 -30.35,3.08 -43.75,9.22 -13.41,6.15 -25,14.59 -34.77,25.32 -9.78,10.71 -17.35,23.25 -22.71,37.6 -5.36,14.35 -8.04,29.73 -8.04,46.13 0,16.39 2.68,31.69 8.04,45.88 5.36,14.19 12.93,26.57 22.71,37.13 9.77,10.57 21.36,18.93 34.77,25.08 13.4,6.14 27.98,9.22 43.75,9.22 18.92,0 35.8,-3.79 50.62,-11.35 14.82,-7.57 28.86,-17.5 42.1,-29.8 l 37.37,43.04 c -7.88,7.57 -16.24,14.51 -25.07,20.82 -8.83,6.3 -18.45,11.74 -28.86,16.32 -10.4,4.57 -21.84,8.12 -34.29,10.64 -12.46,2.52 -26.26,3.78 -41.39,3.78 -25.23,0 -48.26,-4.49 -69.07,-13.48 -20.82,-8.99 -38.79,-21.28 -53.93,-36.89 -15.14,-15.62 -26.88,-33.83 -35.24,-54.64 -8.36,-20.82 -12.54,-43.05 -12.54,-66.7 0,-23.97 4.26,-46.36 12.78,-67.18 8.51,-20.81 20.26,-38.86 35.24,-54.16 14.98,-15.3 32.72,-27.36 53.22,-36.18 20.5,-8.84 42.89,-13.25 67.17,-13.25 15.46,0 29.56,1.34 42.34,4.02 12.78,2.68 24.52,6.62 35.24,11.82 10.72,5.21 20.74,11.36 30.04,18.45 9.3,7.1 18.21,15.22 26.73,24.37 z m 72.99,278.15 v -331.13 h 57.71 v 331.13 z m 401.28,0 h -245.98 v -331.13 h 57.7 v 134.81 h 166.99 v 52.51 h -166.99 v 91.3 h 188.28 z m 229.1,-199.16 131.51,199.16 H 4327 l -93.67,-146.65 -92.71,146.65 h -68.6 l 131.51,-200.57 v -130.56 h 58.66 v 131.97" /></g></g></svg>